<svg width="0" height="0" class="hidden">
    <symbol  id="icon-play" xmlns="http://www.w3.org/2000/svg" aria-hidden="true" viewBox="0 0 24 24">
        <path d="M7 6v12l10-6z"></path>
    </symbol>
    <symbol  id="icon-pause" xmlns="http://www.w3.org/2000/svg" aria-hidden="true" viewBox="0 0 24 24">
        <path d="M8 7h3v10H8zm5 0h3v10h-3z"></path>
    </symbol>
        <symbol  id="icon-plus" xmlns="http://www.w3.org/2000/svg" aria-hidden="true" viewBox="0 0 24 24">
        <path d="M19 11h-6V5h-2v6H5v2h6v6h2v-6h6z"></path>
    </symbol>
    <symbol  id="icon-minus" xmlns="http://www.w3.org/2000/svg" aria-hidden="true" viewBox="0 0 24 24">
        <path d="M5 11h14v2H5z"></path>
    </symbol>
    <symbol  id="icon-fullscreen" xmlns="http://www.w3.org/2000/svg" aria-hidden="true" viewBox="0 0 24 24">
        <path d="M5 5h5V3H3v7h2zm5 14H5v-5H3v7h7zm11-5h-2v5h-5v2h7zm-2-4h2V3h-7v2h5z"></path>
    </symbol>
    <symbol  id="icon-exit-fullscreen" xmlns="http://www.w3.org/2000/svg" aria-hidden="true" viewBox="0 0 24 24">
        <path d="M10 4H8v4H4v2h6zM8 20h2v-6H4v2h4zm12-6h-6v6h2v-4h4zm0-6h-4V4h-2v6h6z"></path>
    </symbol>
</svg>

